<svg xmlns="http://www.w3.org/2000/svg" viewBox="0 0 24 24"><g id="colors"><path d="M8.875 21.5v-6h6.25v2.437a3.56 3.56 0 01-3.562 3.563H8.875z" fill="#88cfb0"/><path d="M15.25 15.375V9h6.25v2.812a3.56 3.56 0 01-3.562 3.562H15.25z" fill="#f2c94c"/><path d="M15.125 9h-6.25v6.312h6.25V9z" fill="#bd83ce"/><path d="M2.5 8.875V6.062A3.56 3.56 0 016.063 2.5H8.75v6.375H2.5z" fill="#40be88"/><path d="M15.25 8.875V2.5h2.688A3.56 3.56 0 0121.5 6.062v2.813h-6.25z" fill="#ff7474"/><path d="M15.125 2.5h-6.25v6.312h6.25V2.5z" fill="#6776f9"/><path d="M2.5 17.937V15.5h6.25v6H6.063c-2.001 0-3.563-1.563-3.563-3.563z" fill="#37c2e2"/><path d="M8.75 9H2.5v6.312h6.25V9z" fill="#f2994a"/></g><path d="M2 17.938V6.062A4.054 4.054 0 016.063 2h11.875A4.054 4.054 0 0122 6.062v5.75a4.054 4.054 0 01-4.062 4.062h-2.313v2.063a4.054 4.054 0 01-4.062 4.062h-5.5A4.053 4.053 0 012 17.938zm6.25-9.626H3.063V6a3 3 0 013-3H8.25v5.312zm9.688 6.563H15.75V9.5h5.188v2.375c0 1.625-1.313 3-3 3zM11.562 21H9.375v-4.938h5.188V18a3.002 3.002 0 01-3.001 3zm-2.187-6.125h5.188V9.5H9.375v5.375zm6.375-6.563h5.188v-2.25c0-1.687-1.375-3-3-3H15.75v5.25zm-1.188 0H9.375V3h5.188v5.312zM3 16v1.938c0 1.687 1.375 3 3 3h2.25V16H3zm5.25-1.125H3V9.5h5.25v5.375z" fill-rule="evenodd" clip-rule="evenodd" style="fill: currentcolor;"/></svg>